<svg xmlns="http://www.w3.org/2000/svg" xmlns:xlink="http://www.w3.org/1999/xlink">
   <symbol id="Group 175-1" viewBox="0 0 22 22"><path stroke-linecap="round" stroke-linejoin="round" stroke-width="2" d="M9.889 18.778A8.889 8.889 0 109.889 1a8.889 8.889 0 000 17.778zM21 21l-4.833-4.833"/></symbol>

   <symbol id="Group 177-1" viewBox="0 0 33 32"><path stroke-linecap="round" stroke-width="2" d="M16.678 31c8.284 0 15-6.716 15-15 0-8.284-6.716-15-15-15-8.285 0-15 6.716-15 15 0 8.284 6.715 15 15 15z"/><path stroke-linecap="round" stroke-width="2" d="M21.678 23.5l-5-7.5V6"/></symbol>

   <symbol id="Group 177" viewBox="0 0 19 19"><path stroke-linecap="round" stroke-width="1.5" d="M9.582 18.165A8.582 8.582 0 109.582 1a8.582 8.582 0 000 17.165z"/><path stroke-linecap="round" stroke-width="1.5" d="M12.443 13.874l-2.86-4.292V3.861"/></symbol>

   <symbol id="Group 178-1" viewBox="0 0 33 39"><path stroke-width="2" d="M1.355 15.4c0 14.4 15 21.6 15 21.6s15-7.2 15-21.6c0-7.95-6.712-14.4-15-14.4-8.287 0-15 6.45-15 14.4z"/><path stroke-width="2" d="M16.355 20.32a5.16 5.16 0 100-10.32 5.16 5.16 0 000 10.32z"/></symbol>

   <symbol id="Group 178" viewBox="0 0 19 23"><path stroke-width="1.5" d="M1 9.24c0 8.238 8.582 12.358 8.582 12.358s8.583-4.12 8.583-12.359C18.165 4.69 14.325 1 9.582 1 4.841 1 1 4.69 1 9.24z"/><path stroke-width="1.5" d="M9.582 12.054a2.952 2.952 0 100-5.905 2.952 2.952 0 000 5.905z"/></symbol>

   <symbol id="Group 188-1" viewBox="0 0 41 39"><path stroke-linecap="round" stroke-linejoin="round" stroke-width="2" d="M24.146 33.126a2.516 2.516 0 001.175-1.545 2.578 2.578 0 00-.264-1.94l-1.28-2.22a2.578 2.578 0 00-1.55-1.197 2.517 2.517 0 00-1.925.245c-4.385 2.532-6.948-1.907-8.23-4.126-1.28-2.22-3.843-6.658.543-9.19a2.517 2.517 0 001.175-1.545 2.579 2.579 0 00-.264-1.94L12.245 7.45a2.579 2.579 0 00-1.548-1.198 2.517 2.517 0 00-1.926.245C3.289 9.66 1.28 13.779 7.687 24.875c6.407 11.096 10.977 11.416 16.459 8.251z"/><path stroke-linecap="round" stroke-linejoin="round" stroke-width="2" d="M35.816 23.962a17.616 17.616 0 00-1.805-13.246A17.617 17.617 0 0023.442 2.53m5.66 19.59a10.5 10.5 0 00.245-4.073 10.602 10.602 0 00-4.017-6.957 10.504 10.504 0 00-3.65-1.825m.745 11a3.525 3.525 0 00-.361-2.65 3.526 3.526 0 00-2.115-1.64"/></symbol>

   <symbol id="Group 188" viewBox="0 0 23 22"><path stroke-linecap="round" stroke-linejoin="round" stroke-width="1.5" d="M13.816 18.954a1.44 1.44 0 00.672-.884 1.475 1.475 0 00-.151-1.11l-.733-1.27a1.475 1.475 0 00-.886-.686 1.44 1.44 0 00-1.102.14c-2.509 1.449-3.975-1.09-4.708-2.36-.733-1.27-2.2-3.81.31-5.258a1.44 1.44 0 00.672-.884 1.475 1.475 0 00-.15-1.11l-.734-1.27a1.475 1.475 0 00-.886-.686 1.44 1.44 0 00-1.102.14C1.882 5.528.733 7.885 4.398 14.234c3.666 6.348 6.281 6.531 9.418 4.72z"/><path stroke-linecap="round" stroke-linejoin="round" stroke-width="1.5" d="M20.492 13.71a10.08 10.08 0 00-1.032-7.579 10.08 10.08 0 00-6.047-4.683m3.238 11.208c.199-.758.247-1.55.14-2.33a6.068 6.068 0 00-2.298-3.981 6.01 6.01 0 00-2.088-1.044m.426 6.293a2.018 2.018 0 00-.207-1.516c-.266-.46-.7-.797-1.21-.937"/></symbol>

   <symbol id="Meddical-1" viewBox="0 0 191 27"><path d="M4.04 5.3v19.08l2.88 1.08V26H.08v-.54l2.88-1.08V1.88L.8 1.34V.8h4.5c1.248 0 2.232.264 2.952.792.744.504 1.38 1.26 1.908 2.268l7.848 15.012L24.02 3.86c.408-1.056.96-1.824 1.656-2.304C26.372 1.052 27.44.8 28.88.8h3.78v.54l-2.16.54v23.04l2.16.54V26H22.4v-.54l2.16-.54V5.3L16.1 26.36h-1.08L4.04 5.3zm31.881 20.16l2.16-.54V1.88l-2.16-.54V.8h19.26v6.48h-1.08a5.091 5.091 0 01-1.188-1.368A8.117 8.117 0 0151.761 1.7h-7.74v11.34h4.14c.168-.912.48-1.764.936-2.556.192-.36.42-.708.684-1.044h1.08v8.1h-1.08a7.09 7.09 0 01-.684-1.044 7.982 7.982 0 01-.936-2.556h-4.14V25.1h8.46c0-1.512.384-2.916 1.152-4.212a5.091 5.091 0 011.188-1.368h1.08V26h-19.98v-.54zm23.203 0l2.16-.54V1.88l-2.16-.54V.8h9.18c4.296 0 7.584 1.104 9.864 3.312 2.304 2.208 3.456 5.304 3.456 9.288s-1.152 7.08-3.456 9.288C75.888 24.896 72.6 26 68.304 26h-9.18v-.54zm9.18-.36c2.232 0 3.96-.9 5.184-2.7 1.224-1.824 1.836-4.824 1.836-9s-.612-7.164-1.836-8.964C72.264 2.612 70.536 1.7 68.304 1.7h-1.08v23.4h1.08z"/><path d="M84.859 25.46l2.16-.54V1.88l-2.16-.54V.8h9.18c4.296 0 7.584 1.104 9.864 3.312 2.304 2.208 3.456 5.304 3.456 9.288s-1.152 7.08-3.456 9.288C101.623 24.896 98.335 26 94.039 26h-9.18v-.54zm9.18-.36c2.232 0 3.96-.9 5.184-2.7 1.224-1.824 1.836-4.824 1.836-9s-.612-7.164-1.836-8.964C97.999 2.612 96.27 1.7 94.039 1.7h-1.08v23.4h1.08zm16.554.9v-.54l2.16-.54V1.88l-2.16-.54V.8h10.26v.54l-2.16.54v23.04l2.16.54V26h-10.26zm25.912.54c-3.84 0-6.84-1.14-9-3.42-2.16-2.28-3.24-5.52-3.24-9.72 0-2.76.468-5.124 1.404-7.092.96-1.992 2.292-3.492 3.996-4.5C131.393.776 133.385.26 135.641.26c1.368 0 2.748.396 4.14 1.188a8.249 8.249 0 011.584 1.152c.408-.624.828-1.116 1.26-1.476.432-.312.672-.48.72-.504h.9v6.84h-1.44a10.594 10.594 0 00-1.404-3.132 7.796 7.796 0 00-2.16-2.268c-.84-.6-1.812-.9-2.916-.9-1.656 0-3.036.96-4.14 2.88-1.08 1.92-1.62 5.04-1.62 9.36 0 4.392.588 7.536 1.764 9.432 1.2 1.872 2.832 2.808 4.896 2.808 1.128 0 2.196-.312 3.204-.936a7.448 7.448 0 002.484-2.556c.648-1.056.972-2.172.972-3.348h.9c0 1.368-.372 2.652-1.116 3.852-.72 1.176-1.716 2.124-2.988 2.844-1.248.696-2.64 1.044-4.176 1.044zm8.13-1.08l2.88-1.08 9.9-23.94h1.08l10.26 24.48 1.8.54V26h-4.32c-1.248 0-2.268-.276-3.06-.828a5.204 5.204 0 01-1.764-2.232l-1.836-4.32h-8.604l-2.376 5.76 2.7 1.08V26h-6.66v-.54zm6.696-7.74h7.884l-3.96-9.468-3.924 9.468zm20.293 7.74l2.16-.54V1.88l-2.16-.54V.8h10.26v.54l-2.16.54V25.1h7.74c0-1.512.384-2.916 1.152-4.212a5.091 5.091 0 011.188-1.368h1.08V26h-19.26v-.54z"/></symbol>

   <symbol id="Meddical-2" viewBox="0 0 191 27"><path d="M4.04 5.3v19.08l2.88 1.08V26H.08v-.54l2.88-1.08V1.88L.8 1.34V.8h4.5c1.248 0 2.232.264 2.952.792.744.504 1.38 1.26 1.908 2.268l7.848 15.012L24.02 3.86c.408-1.056.96-1.824 1.656-2.304C26.372 1.052 27.44.8 28.88.8h3.78v.54l-2.16.54v23.04l2.16.54V26H22.4v-.54l2.16-.54V5.3L16.1 26.36h-1.08L4.04 5.3zm31.881 20.16l2.16-.54V1.88l-2.16-.54V.8h19.26v6.48h-1.08a5.091 5.091 0 01-1.188-1.368A8.117 8.117 0 0151.761 1.7h-7.74v11.34h4.14c.168-.912.48-1.764.936-2.556.192-.36.42-.708.684-1.044h1.08v8.1h-1.08a7.09 7.09 0 01-.684-1.044 7.982 7.982 0 01-.936-2.556h-4.14V25.1h8.46c0-1.512.384-2.916 1.152-4.212a5.091 5.091 0 011.188-1.368h1.08V26h-19.98v-.54zm23.203 0l2.16-.54V1.88l-2.16-.54V.8h9.18c4.296 0 7.584 1.104 9.864 3.312 2.304 2.208 3.456 5.304 3.456 9.288s-1.152 7.08-3.456 9.288C75.888 24.896 72.6 26 68.304 26h-9.18v-.54zm9.18-.36c2.232 0 3.96-.9 5.184-2.7 1.224-1.824 1.836-4.824 1.836-9s-.612-7.164-1.836-8.964C72.264 2.612 70.536 1.7 68.304 1.7h-1.08v23.4h1.08zm16.555.36l2.16-.54V1.88l-2.16-.54V.8h9.18c4.296 0 7.584 1.104 9.864 3.312 2.304 2.208 3.456 5.304 3.456 9.288s-1.152 7.08-3.456 9.288C101.623 24.896 98.335 26 94.039 26h-9.18v-.54zm9.18-.36c2.232 0 3.96-.9 5.184-2.7 1.224-1.824 1.836-4.824 1.836-9s-.612-7.164-1.836-8.964C97.999 2.612 96.27 1.7 94.039 1.7h-1.08v23.4h1.08zm16.554.9v-.54l2.16-.54V1.88l-2.16-.54V.8h10.26v.54l-2.16.54v23.04l2.16.54V26h-10.26zm25.912.54c-3.84 0-6.84-1.14-9-3.42-2.16-2.28-3.24-5.52-3.24-9.72 0-2.76.468-5.124 1.404-7.092.96-1.992 2.292-3.492 3.996-4.5C131.393.776 133.385.26 135.641.26c1.368 0 2.748.396 4.14 1.188a8.249 8.249 0 011.584 1.152c.408-.624.828-1.116 1.26-1.476.432-.312.672-.48.72-.504h.9v6.84h-1.44a10.594 10.594 0 00-1.404-3.132 7.796 7.796 0 00-2.16-2.268c-.84-.6-1.812-.9-2.916-.9-1.656 0-3.036.96-4.14 2.88-1.08 1.92-1.62 5.04-1.62 9.36 0 4.392.588 7.536 1.764 9.432 1.2 1.872 2.832 2.808 4.896 2.808 1.128 0 2.196-.312 3.204-.936a7.448 7.448 0 002.484-2.556c.648-1.056.972-2.172.972-3.348h.9c0 1.368-.372 2.652-1.116 3.852-.72 1.176-1.716 2.124-2.988 2.844-1.248.696-2.64 1.044-4.176 1.044zm8.13-1.08l2.88-1.08 9.9-23.94h1.08l10.26 24.48 1.8.54V26h-4.32c-1.248 0-2.268-.276-3.06-.828a5.204 5.204 0 01-1.764-2.232l-1.836-4.32h-8.604l-2.376 5.76 2.7 1.08V26h-6.66v-.54zm6.696-7.74h7.884l-3.96-9.468-3.924 9.468zm20.293 7.74l2.16-.54V1.88l-2.16-.54V.8h10.26v.54l-2.16.54V25.1h7.74c0-1.512.384-2.916 1.152-4.212a5.091 5.091 0 011.188-1.368h1.08V26h-19.26v-.54z"/></symbol>

   <symbol id="Meddical" viewBox="0 0 150 22"><path d="M3.92 4.9v14.84l2.24.84V21H.84v-.42l2.24-.84V2.24L1.4 1.82V1.4h3.5c.97 0 1.736.205 2.296.616.579.392 1.073.98 1.484 1.764l6.104 11.676L19.46 3.78c.317-.821.747-1.419 1.288-1.792.541-.392 1.372-.588 2.492-.588h2.94v.42l-1.68.42v17.92l1.68.42V21H18.2v-.42l1.68-.42V4.9L13.3 21.28h-.84L3.92 4.9zm24.796 15.68l1.68-.42V2.24l-1.68-.42V1.4h14.98v5.04h-.84a3.959 3.959 0 01-.924-1.064 6.313 6.313 0 01-.896-3.276h-6.02v8.82h3.22c.131-.71.374-1.372.728-1.988.15-.28.327-.55.532-.812h.84v6.3h-.84a5.512 5.512 0 01-.532-.812 6.208 6.208 0 01-.728-1.988h-3.22v8.68h6.58c0-1.176.3-2.268.896-3.276.262-.43.57-.784.924-1.064h.84V21h-15.54v-.42zm18.047 0l1.68-.42V2.24l-1.68-.42V1.4h7.14c3.342 0 5.899.859 7.672 2.576 1.792 1.717 2.688 4.125 2.688 7.224s-.896 5.507-2.688 7.224C59.802 20.141 57.245 21 53.903 21h-7.14v-.42zm7.14-.28c1.736 0 3.08-.7 4.032-2.1.952-1.419 1.428-3.752 1.428-7s-.476-5.572-1.428-6.972C56.983 2.809 55.64 2.1 53.903 2.1h-.84v18.2h.84z"/><path d="M66.779 20.58l1.68-.42V2.24l-1.68-.42V1.4h7.14c3.341 0 5.899.859 7.672 2.576 1.792 1.717 2.688 4.125 2.688 7.224s-.896 5.507-2.688 7.224C79.818 20.141 77.26 21 73.919 21h-7.14v-.42zm7.14-.28c1.736 0 3.08-.7 4.032-2.1.952-1.419 1.428-3.752 1.428-7s-.476-5.572-1.428-6.972C76.999 2.809 75.655 2.1 73.919 2.1h-.84v18.2h.84zm12.876.7v-.42l1.68-.42V2.24l-1.68-.42V1.4h7.98v.42l-1.68.42v17.92l1.68.42V21h-7.98zm20.153.42c-2.987 0-5.32-.887-7-2.66-1.68-1.773-2.52-4.293-2.52-7.56 0-2.147.364-3.985 1.092-5.516.747-1.55 1.783-2.716 3.108-3.5 1.344-.803 2.893-1.204 4.648-1.204 1.064 0 2.137.308 3.22.924.411.224.821.523 1.232.896.317-.485.644-.868.98-1.148.336-.243.523-.373.56-.392h.7v5.32h-1.12a8.257 8.257 0 00-1.092-2.436 6.064 6.064 0 00-1.68-1.764c-.653-.467-1.409-.7-2.268-.7-1.288 0-2.361.747-3.22 2.24-.84 1.493-1.26 3.92-1.26 7.28 0 3.416.457 5.861 1.372 7.336.933 1.456 2.203 2.184 3.808 2.184.877 0 1.708-.243 2.492-.728a5.787 5.787 0 001.932-1.988c.504-.821.756-1.69.756-2.604h.7a5.584 5.584 0 01-.868 2.996c-.56.915-1.335 1.652-2.324 2.212-.971.541-2.053.812-3.248.812zm6.324-.84l2.24-.84 7.7-18.62h.84l7.98 19.04 1.4.42V21h-3.36c-.971 0-1.764-.215-2.38-.644a4.05 4.05 0 01-1.372-1.736l-1.428-3.36H118.2l-1.848 4.48 2.1.84V21h-5.18v-.42zm5.208-6.02h6.132l-3.08-7.364-3.052 7.364zm15.783 6.02l1.68-.42V2.24l-1.68-.42V1.4h7.98v.42l-1.68.42V20.3h6.02c0-1.176.299-2.268.896-3.276.262-.43.57-.784.924-1.064h.84V21h-14.98v-.42z"/></symbol>

   <symbol id="Vector-1" viewBox="0 0 13 13"><path stroke-linecap="round" stroke-linejoin="round" stroke-width="2" d="M7.218 11.5l4.615-5m0 0l-4.615-5m4.615 5H1"/></symbol>

   <symbol id="Vector-2" viewBox="0 0 24 24"><path d="M16.872 8.314a2.07 2.07 0 00-1.187-1.186 3.458 3.458 0 00-1.16-.216c-.659-.03-.856-.037-2.525-.037s-1.866.008-2.525.037c-.397.005-.79.078-1.161.216a2.07 2.07 0 00-1.186 1.187c-.138.371-.21.764-.216 1.16-.03.659-.037.856-.037 2.525s.008 1.866.037 2.525c.005.396.078.79.216 1.161a2.07 2.07 0 001.187 1.186c.372.138.764.21 1.16.215.659.03.856.037 2.525.037s1.866-.006 2.525-.038c.396-.004.79-.076 1.161-.213a2.07 2.07 0 001.186-1.188c.138-.372.21-.764.215-1.16.03-.659.037-.856.037-2.525s-.006-1.866-.038-2.525a3.46 3.46 0 00-.213-1.161zM12 15.21a3.21 3.21 0 110-6.42 3.21 3.21 0 010 6.42zm3.336-5.796a.75.75 0 110-1.5.75.75 0 010 1.5zM14.084 12a2.085 2.085 0 11-4.17 0 2.085 2.085 0 014.17 0zM12 0a12 12 0 100 24 12 12 0 000-24zm6.212 14.576a4.59 4.59 0 01-.29 1.518 3.196 3.196 0 01-1.828 1.827c-.486.182-.998.28-1.517.291-.667.03-.88.038-2.577.038s-1.91-.008-2.578-.038a4.586 4.586 0 01-1.516-.29 3.195 3.195 0 01-1.827-1.828 4.588 4.588 0 01-.292-1.517c-.03-.667-.037-.88-.037-2.577s.008-1.91.037-2.578c.01-.518.109-1.03.29-1.516a3.195 3.195 0 011.83-1.829c.485-.181.997-.28 1.515-.29.668-.03.88-.037 2.578-.037 1.697 0 1.91.008 2.578.037.518.01 1.03.109 1.516.29a3.195 3.195 0 011.827 1.83c.182.485.28.997.291 1.515.03.668.038.88.038 2.578 0 1.697-.008 1.91-.038 2.578v-.002z"/></symbol>

   <symbol id="Vector-3" viewBox="0 0 24 24"><path d="M12 0C5.372 0 0 5.372 0 12s5.372 12 12 12 12-5.372 12-12S18.628 0 12 0zm2.842 8.293H13.04c-.214 0-.451.28-.451.655v1.302h2.256l-.341 1.857h-1.915v5.577h-2.13v-5.577h-1.93V10.25h1.93V9.158c0-1.568 1.088-2.842 2.58-2.842h1.804v1.977z"/></symbol>

   <symbol id="Vector-4" viewBox="0 0 24 24"><path d="M12 0C5.372 0 0 5.372 0 12s5.372 12 12 12 12-5.372 12-12S18.628 0 12 0zM9.062 16.974h-2.43v-7.82h2.43v7.82zm-1.23-8.78c-.767 0-1.263-.544-1.263-1.217 0-.686.511-1.213 1.295-1.213.784 0 1.263.527 1.279 1.213 0 .673-.495 1.217-1.31 1.217zm10.105 8.78h-2.43V12.64c0-1.009-.352-1.694-1.23-1.694-.672 0-1.07.464-1.247.91-.065.159-.081.384-.081.608v4.508h-2.431v-5.325c0-.976-.032-1.792-.064-2.495h2.111l.111 1.087h.049c.32-.51 1.104-1.263 2.415-1.263 1.599 0 2.797 1.071 2.797 3.374v4.624z"/></symbol>

   <symbol id="Vector-5" viewBox="0 0 23 23"><path d="M20.745.435l-.007.003L1.14 8.544a1.08 1.08 0 00-.65.79 1.13 1.13 0 00.306 1.03l3.674 3.674a1.101 1.101 0 001.398.131l8.952-6.158a.183.183 0 01.255.255l-6.158 8.952a1.101 1.101 0 00.13 1.397l3.675 3.675a1.08 1.08 0 00.982.295 1.097 1.097 0 00.805-.67L22.65 2.35l.002-.01A1.467 1.467 0 0020.745.436z"/></symbol>

   <symbol id="Vector" viewBox="0 0 24 18"><path fill-rule="evenodd" d="M24 15v2.4H0V15h24zm0-7.2v2.4H0V7.8h24zm0-7.2V3H0V.6h24z" clip-rule="evenodd"/></symbol>

   <symbol id="cardio" viewBox="0 0 32 28"><path d="M19.238 12.423h-1.601v-1.587c0-.421-.17-.825-.47-1.122a1.61 1.61 0 00-2.265 0c-.3.297-.469.701-.469 1.122v1.587h-1.601c-.425 0-.832.167-1.133.464a1.58 1.58 0 000 2.244c.3.298.708.465 1.133.465h1.601v1.587c0 .42.17.824.47 1.122a1.61 1.61 0 002.264 0c.3-.298.47-.701.47-1.122v-1.587h1.601a1.61 1.61 0 001.133-.465 1.58 1.58 0 000-2.244 1.61 1.61 0 00-1.133-.464zm9.866-9.52A10.116 10.116 0 0022.744.04a10.142 10.142 0 00-6.709 1.925A10.111 10.111 0 002.431 3.46a9.892 9.892 0 00-2.423 6.879 9.906 9.906 0 002.958 6.67l9.61 9.6A4.828 4.828 0 0015.97 28c1.273 0 2.494-.5 3.395-1.392l9.61-9.6a9.946 9.946 0 002.22-3.214 9.87 9.87 0 00.069-7.638 9.943 9.943 0 00-2.161-3.254zm-2.258 11.836l-9.61 9.52a1.602 1.602 0 01-1.137.47 1.614 1.614 0 01-1.137-.47l-9.61-9.52a6.774 6.774 0 01-1.959-4.76c0-1.78.703-3.488 1.96-4.76a6.872 6.872 0 014.804-1.954c1.799 0 3.525.702 4.805 1.954a1.602 1.602 0 001.137.47 1.615 1.615 0 001.137-.47 6.872 6.872 0 014.805-1.954c1.799 0 3.525.702 4.805 1.954a6.775 6.775 0 011.975 4.776c0 1.787-.71 3.503-1.975 4.776v-.032z"/></symbol>

   <symbol id="checkup" viewBox="0 0 28 28"><path d="M9.76 13.053a1.333 1.333 0 00.94 2.281 1.333 1.333 0 10-.94-2.28zm3.293 3.307a1.333 1.333 0 101.892 1.88 1.333 1.333 0 00-1.892-1.88zm12-13.333A8 8 0 0014 2.733 8 8 0 003.013 3a8 8 0 00-.253 11 8 8 0 005.907 13.333A7.893 7.893 0 0014 25.267 8 8 0 0025 25a8 8 0 00.24-11A8 8 0 0025 3l.053.027zm-1.946 1.866a5.333 5.333 0 01.227 7.187L15.92 4.667a5.427 5.427 0 017.187.226zM4.893 23.107a5.333 5.333 0 01-.226-7.187l7.466 7.467a5.44 5.44 0 01-7.24-.28zm18.214 0a5.44 5.44 0 01-7.52 0L4.92 12.44a5.333 5.333 0 010-7.52 5.333 5.333 0 017.52 0l10.667 10.667a5.334 5.334 0 010 7.52zM16.36 13.053a1.334 1.334 0 101.879 1.894 1.334 1.334 0 00-1.879-1.894zM13.054 9.76a1.333 1.333 0 101.893 1.88 1.333 1.333 0 10-1.893-1.88z"/></symbol>

   <symbol id="blood" viewBox="0 0 32 40"><path d="M26 8h-4V4h4a2 2 0 000-4H10A10 10 0 000 10v28a2 2 0 004 0V10a6 6 0 016-6h8v4h-4a6 6 0 00-6 6v9.86a6 6 0 002.68 5L14 31.08V32a4 4 0 004 4v2a2 2 0 004 0v-2a4 4 0 004-4v-.92l3.32-2.22a6 6 0 002.68-5V14a6 6 0 00-6-6zm-2 10h4v2h-2a2 2 0 000 4h2a2 2 0 01-.88 1.52l-4.2 2.82A2 2 0 0022 30v2h-4v-2a1.999 1.999 0 00-.9-1.66l-4.2-2.82a2 2 0 01-.9-1.66V14a2 2 0 012-2h12a2 2 0 012 2h-4a2 2 0 000 4z"/></symbol>

   <symbol id="testing" viewBox="0 0 32 32"><path d="M27.2 0H4.8A4.8 4.8 0 000 4.8v22.4A4.8 4.8 0 004.8 32h22.4a4.8 4.8 0 004.8-4.8V4.8A4.8 4.8 0 0027.2 0zm1.6 27.2a1.6 1.6 0 01-1.6 1.6H4.8a1.6 1.6 0 01-1.6-1.6V4.8a1.6 1.6 0 011.6-1.6h22.4a1.6 1.6 0 011.6 1.6v22.4zm-4.8-16h-3.2V8a1.6 1.6 0 00-1.6-1.6h-6.4A1.6 1.6 0 0011.2 8v3.2H8a1.6 1.6 0 00-1.6 1.6v6.4A1.6 1.6 0 008 20.8h3.2V24a1.6 1.6 0 001.6 1.6h6.4a1.6 1.6 0 001.6-1.6v-3.2H24a1.6 1.6 0 001.6-1.6v-6.4a1.6 1.6 0 00-1.6-1.6zm-1.6 6.4h-3.2a1.6 1.6 0 00-1.6 1.6v3.2h-3.2v-3.2a1.6 1.6 0 00-1.6-1.6H9.6v-3.2h3.2a1.6 1.6 0 001.6-1.6V9.6h3.2v3.2a1.6 1.6 0 001.6 1.6h3.2v3.2z"/></symbol>

   <symbol id="li" viewBox="0 0 24 24"><path d="M12 0C5.372 0 0 5.372 0 12s5.372 12 12 12 12-5.372 12-12S18.628 0 12 0zM9.062 16.974h-2.43v-7.82h2.43v7.82zm-1.23-8.78c-.767 0-1.263-.544-1.263-1.217 0-.686.511-1.213 1.295-1.213.784 0 1.263.527 1.279 1.213 0 .673-.495 1.217-1.31 1.217zm10.105 8.78h-2.43V12.64c0-1.009-.352-1.694-1.23-1.694-.672 0-1.07.464-1.247.91-.065.159-.081.384-.081.608v4.508h-2.431v-5.325c0-.976-.032-1.792-.064-2.495h2.111l.111 1.087h.049c.32-.51 1.104-1.263 2.415-1.263 1.599 0 2.797 1.071 2.797 3.374v4.624z"/></symbol>

   <symbol id="inst" viewBox="0 0 24 24"><path d="M16.872 8.314a2.07 2.07 0 00-1.187-1.186 3.458 3.458 0 00-1.16-.216c-.659-.03-.856-.037-2.525-.037s-1.866.008-2.525.037c-.397.005-.79.078-1.161.216a2.07 2.07 0 00-1.186 1.187c-.138.371-.21.764-.216 1.16-.03.659-.037.856-.037 2.525s.008 1.866.037 2.525c.005.396.078.79.216 1.161a2.07 2.07 0 001.187 1.186c.372.138.764.21 1.16.215.659.03.856.037 2.525.037s1.866-.006 2.525-.038c.396-.004.79-.076 1.161-.213a2.07 2.07 0 001.186-1.188c.138-.372.21-.764.215-1.16.03-.659.037-.856.037-2.525s-.006-1.866-.038-2.525a3.46 3.46 0 00-.213-1.161zM12 15.21a3.21 3.21 0 110-6.42 3.21 3.21 0 010 6.42zm3.336-5.796a.75.75 0 110-1.5.75.75 0 010 1.5zM14.084 12a2.085 2.085 0 11-4.17 0 2.085 2.085 0 014.17 0zM12 0a12 12 0 100 24 12 12 0 000-24zm6.212 14.576a4.59 4.59 0 01-.29 1.518 3.196 3.196 0 01-1.828 1.827c-.486.182-.998.28-1.517.291-.667.03-.88.038-2.577.038s-1.91-.008-2.578-.038a4.586 4.586 0 01-1.516-.29 3.195 3.195 0 01-1.827-1.828 4.588 4.588 0 01-.292-1.517c-.03-.667-.037-.88-.037-2.577s.008-1.91.037-2.578c.01-.518.109-1.03.29-1.516a3.195 3.195 0 011.83-1.829c.485-.181.997-.28 1.515-.29.668-.03.88-.037 2.578-.037 1.697 0 1.91.008 2.578.037.518.01 1.03.109 1.516.29a3.195 3.195 0 011.827 1.83c.182.485.28.997.291 1.515.03.668.038.88.038 2.578 0 1.697-.008 1.91-.038 2.578v-.002z"/></symbol>

   <symbol id="fb" viewBox="0 0 24 24"><path d="M12 0C5.372 0 0 5.372 0 12s5.372 12 12 12 12-5.372 12-12S18.628 0 12 0zm2.842 8.293H13.04c-.214 0-.451.28-.451.655v1.302h2.256l-.341 1.857h-1.915v5.577h-2.13v-5.577h-1.93V10.25h1.93V9.158c0-1.568 1.088-2.842 2.58-2.842h1.804v1.977z"/></symbol>

   <symbol id="eye" viewBox="0 0 18 13"><path stroke-linecap="round" stroke-linejoin="round" stroke-width="1.5" d="M8.988 1C6.204 1 3.348 2.611 1.1 5.833a.571.571 0 00-.01.635c1.728 2.703 4.545 4.817 7.897 4.817 3.315 0 6.19-2.12 7.92-4.83a.576.576 0 000-.624C15.174 3.153 12.278 1 8.988 1z"/><path stroke-miterlimit="10" stroke-width="1.5" d="M9 9a2.857 2.857 0 100-5.714A2.857 2.857 0 009 9z"/></symbol>

   <symbol id="like" viewBox="0 0 16 15"><path d="M14.541 1.504a5.033 5.033 0 00-6.53-.512 5.017 5.017 0 00-6.529 7.585l4.97 4.978a2.225 2.225 0 003.12 0l4.97-4.978a5.017 5.017 0 000-7.073zm-1.128 5.97l-4.97 4.968a.61.61 0 01-.863 0L2.61 7.45a3.433 3.433 0 010-4.801 3.417 3.417 0 014.801 0 .8.8 0 001.137 0 3.417 3.417 0 014.801 0 3.433 3.433 0 01.064 4.801v.024z"/></symbol>

   <symbol id="specialties" viewBox="0 0 50 44"><path d="M8.46 21.988h-.954l17.506 17.57 14.377-14.43h4.425L25.012 44 3.863 22.797a12.125 12.125 0 01-1.516-1.852 14.111 14.111 0 01-1.149-2.098h5.941l6.92-6.92 10.953 10.969 7.824-7.829 3.79 3.78h8.68c.521-.835.92-1.718 1.198-2.65.277-.933.415-1.89.415-2.872 0-1.423-.265-2.748-.794-3.975a10.032 10.032 0 00-2.176-3.203 10.11 10.11 0 00-3.228-2.135c-1.23-.515-2.555-.773-3.973-.773-1.369 0-2.583.217-3.643.65a12.236 12.236 0 00-2.934 1.706 22.002 22.002 0 00-2.58 2.393c-.823.891-1.682 1.795-2.579 2.711a98.325 98.325 0 01-2.567-2.674c-.831-.9-1.7-1.71-2.604-2.43a12.897 12.897 0 00-2.958-1.767c-1.068-.458-2.27-.687-3.607-.687a9.848 9.848 0 00-3.948.798A10.242 10.242 0 006.1 6.123a10.284 10.284 0 00-2.176 3.239 9.947 9.947 0 00-.794 3.963c0 .77.09 1.563.269 2.38H.196a8.34 8.34 0 01-.16-1.177A18.948 18.948 0 010 13.35C0 11.5.346 9.767 1.04 8.147a13.543 13.543 0 012.835-4.245 13.239 13.239 0 014.218-2.86C9.707.349 11.434 0 13.276 0c1.353 0 2.56.155 3.619.466 1.06.311 2.041.74 2.946 1.289a15.771 15.771 0 012.592 1.975 80.744 80.744 0 012.58 2.528 80.638 80.638 0 012.579-2.528 15.763 15.763 0 012.591-1.975A12.386 12.386 0 0133.13.466C34.19.156 35.395 0 36.748 0c1.826 0 3.545.348 5.16 1.043 1.613.695 3.019 1.64 4.217 2.834a13.25 13.25 0 012.836 4.221C49.654 9.718 50 11.444 50 13.276a13.22 13.22 0 01-.831 4.626 13.769 13.769 0 01-2.372 4.086H35.306l-2.47-2.503-7.824 7.877L14.06 16.344l-5.6 5.644z"/></symbol>

   <symbol id="decor-slider" viewBox="0 0 45 30"><path d="M26.25 0v18.75h10.313L30 30h8.438L45 18.75V0H26.25zM0 18.75h10.313L3.75 30h8.438l6.562-11.25V0H0v18.75z"/></symbol>

   <symbol id="calendar" viewBox="0 0 18 20">
      <path stroke-linecap="round" stroke-linejoin="round" stroke-width="2" d="M15.222 2.778H2.778C1.796 2.778 1 3.574 1 4.556V17c0 .982.796 1.778 1.778 1.778h12.444c.982 0 1.778-.796 1.778-1.778V4.556c0-.982-.796-1.778-1.778-1.778zM12.556 1v3.556M5.444 1v3.556M1 8.111h16"/>
   </symbol>

   <symbol id="user" viewBox="0 0 18 20">
      <path stroke-linecap="round" stroke-linejoin="round" stroke-width="2" d="M17 19v-2a4 4 0 00-4-4H5a4 4 0 00-4 4v2M9 9a4 4 0 100-8 4 4 0 000 8z"/>
   </symbol>

   <symbol id="arrow-left" viewBox="0 0 13 13"><path stroke-linecap="round" stroke-linejoin="round" stroke-width="2" d="M5.616 11.5L1 6.5m0 0l4.616-5M1 6.5h10.834"/></symbol>

   <symbol id="Calendar-big" viewBox="0 0 52 52">
      <path stroke-linecap="round" stroke-linejoin="round" stroke-width="2" d="M49.438 1H2.562C1.7 1 1 1.7 1 2.563v46.874C1 50.3 1.7 51 2.563 51h46.874C50.3 51 51 50.3 51 49.437V2.563C51 1.7 50.3 1 49.437 1z"/><path stroke-linecap="round" stroke-linejoin="round" stroke-width="2" d="M16 16H6v10h10V16zM26 16H16v10h10V16zM36 16H26v10h10V16zM46 16H36v10h10V16zM46 26H36v10h10V26zM36 26H26v10h10V26zM26 26H16v10h10V26zM16 26H6v10h10V26zM16 36H6v10h10V36zM26 36H16v10h10V36zM36 36H26v10h10V36z"/><path stroke-linecap="round" stroke-linejoin="round" stroke-width="2" d="M11 1h5v2.5C16 4.88 14.878 6 13.5 6 12.12 6 11 4.878 11 3.5V1zM36 1h5v2.5C41 4.88 39.879 6 38.5 6 37.12 6 36 4.878 36 3.5V1z" clip-rule="evenodd"/>
   </symbol>

   <symbol id="Cash" viewBox="0 0 52 40">
      <path stroke-linecap="round" stroke-linejoin="round" stroke-width="2" d="M51 1.77H1v30h50v-30zM48.917 31.979H3.083v3.125h45.834v-3.125zM46.833 35.104H5.167v3.125h41.666v-3.125z"/><path stroke-linecap="round" stroke-linejoin="round" stroke-width="2" d="M25.749 28.06c4.44 0 8.039-4.953 8.039-11.062 0-6.108-3.6-11.06-8.04-11.06-4.44 0-8.039 4.952-8.039 11.06 0 6.11 3.6 11.061 8.04 11.061z"/><path stroke-linecap="round" stroke-linejoin="round" stroke-width="2" d="M9.985 28.06h32.03c0-3.055 2.39-5.531 5.34-5.531V11.468c-2.95 0-5.34-2.476-5.34-5.53H9.986c0 3.054-2.39 5.53-5.339 5.53v11.06c2.948 0 5.339 2.477 5.339 5.531z" clip-rule="evenodd"/><path stroke-linecap="round" stroke-linejoin="round" stroke-width="2" d="M12.183 18.578c.832 0 1.507-.707 1.507-1.58 0-.872-.675-1.58-1.507-1.58-.833 0-1.508.708-1.508 1.58 0 .873.675 1.58 1.508 1.58zM38.813 18.578c.832 0 1.507-.707 1.507-1.58 0-.872-.675-1.58-1.508-1.58-.832 0-1.507.708-1.507 1.58 0 .873.675 1.58 1.508 1.58z"/>
   </symbol>

   <symbol id="Team" viewBox="0 0 52 46">
      <path stroke-linecap="round" stroke-linejoin="round" stroke-width="2" d="M17.748 15.474c-.364.224-1.05 1.633-.74 2.87.462 1.837 2.105 2.555 2.105 2.555s2.571 3.394 2.571 5.368c0 1.974 0 2.741-.689 4.388-.689 1.647-14.212 3.621-14.787 13.33h19.684l19.9.002c-.574-9.709-14.098-11.683-14.787-13.33-.689-1.647-.689-2.414-.689-4.388 0-1.974 2.571-5.368 2.571-5.368s1.643-.718 2.105-2.556c.311-1.236-.376-2.645-.74-2.869.974-2.973 2.92-13.222-8.144-13.59a.856.856 0 00-.147-.005c-11.133.371-9.187 10.62-8.212 13.593z" clip-rule="evenodd"/><path stroke-linecap="round" stroke-linejoin="round" stroke-width="2" d="M1 37.516c3.248-2.277 7.297-3.16 7.627-3.95.546-1.303.546-1.91.546-3.473s-2.035-4.25-2.035-4.25-1.301-.568-1.667-2.023c-.246-.979.298-2.094.586-2.271-.771-2.354-2.311-10.467 6.502-10.761a.685.685 0 01.116.003c1.9.064 3.316.495 4.36 1.157a16.74 16.74 0 00.713 3.526c-.364.224-1.05 1.633-.74 2.87.462 1.837 2.105 2.555 2.105 2.555s.054.07.145.197c-.046.169-.092.32-.136.454.288.178.832 1.293.586 2.272-.366 1.455-1.667 2.023-1.667 2.023s-2.035 2.687-2.035 4.25c0 1.302 0 1.941.316 2.873-4.2 1.826-9.75 4.872-10.114 11.017h19.684l19.9.002c-.37-6.26-6.123-9.304-10.348-11.118.291-.893.291-1.532.291-2.8 0-1.563-2.035-4.25-2.035-4.25s-1.3-.568-1.667-2.023c-.245-.978.298-2.094.587-2.271a9.452 9.452 0 01-.056-.176c.197-.281.323-.448.323-.448s1.643-.718 2.105-2.556c.31-1.236-.376-2.645-.74-2.869.265-.81.603-2.16.73-3.703 1.024-.577 2.374-.95 4.14-1.009a.665.665 0 01.115.004c8.759.292 7.218 8.405 6.447 10.758.289.178.832 1.293.586 2.272-.365 1.455-1.666 2.023-1.666 2.023s-2.035 2.687-2.035 4.25c0 1.563 0 2.17.545 3.473.339.81 4.599 1.72 7.886 4.136v6.416l-11.934-.001h-10.81l.001.025-15.753-.001H1v-6.603z" clip-rule="evenodd"/>
   </symbol>
   
</svg>